Coordinates
version=1
nRows=21
nColumns=33
inDegrees=yes

Units are S.I. units (second, meters, Newtons, ...)
Angles are in degrees.

endheader
time	ground_thorax_rot_x	ground_thorax_rot_y	ground_thorax_rot_z	ground_thorax_tx	ground_thorax_ty	ground_thorax_tz	clav_prot_r	clav_elev_r	scapula_abduction_r	scapula_elevation_r	scapula_upward_rot_r	scapula_winging_r	shoulder_elv_r	plane_of_elev_r	axial_rot_r	elbow_flexion_r	pro_sup_r	wrist_flex_r	wrist_dev_r	clav_prot_l	clav_elev_l	scapula_abduction_l	scapula_elevation_l	scapula_upward_rot_l	scapula_winging_l	shoulder_elv_l	plane_of_elev_l	axial_rot_l	elbow_flexion_l	pro_sup_l	wrist_flex_l	wrist_dev_l
      3.62000000	     25.26294101	     32.33154374	     49.97545586	     60.42913855	    803.97119292	    -42.30563119	     13.43961601	     35.95936478	     31.18514359	     45.00000000	    -45.00000000	    997.65168399	   2769.70261878	    157.09513660	      6.56355534	   1799.30648664	    536.70234185	     13.79188348	     14.49449084	    -12.92422969	    -45.00000000	    -35.18619864	     45.00000000	    -45.00000000	   5496.83231760	  -5685.78322756	     26.91527010	     38.74972136	   1069.64198782	     50.16381628	     12.21050982	    -15.86973688
      3.63000000	     25.13972416	     32.46954094	     50.15073197	     62.66078958	    802.55466499	    -42.18619227	     13.39323982	     36.00100951	     31.10049034	     45.00000000	    -45.00000000	    997.84410740	   2769.67614008	    157.20122736	      6.91559034	   1799.34107015	    536.91410745	     13.73580417	     14.44239377	    -13.06297413	    -45.00000000	    -35.03534938	     45.00000000	    -45.00000000	   5496.74903003	  -5685.94264672	     26.79022050	     38.17965073	   1069.68981466	     50.30391745	     12.14363621	    -15.79685857
      3.64000000	     24.99597583	     32.62575677	     50.35146611	     64.86021748	    801.10148397	    -42.06824518	     13.38425153	     36.01827029	     31.00490609	     45.00000000	    -45.00000000	    998.01604127	   2769.64790583	    157.29314996	      7.23875518	   1799.36927095	    537.06665968	     13.68036941	     14.37523334	    -13.21363581	    -45.00000000	    -34.86574570	     45.00000000	    -45.00000000	   5496.68033476	  -5686.10303998	     26.63426611	     37.59103546	   1069.72611432	     50.44105307	     12.06003689	    -15.70044736
      3.65000000	     24.86693555	     32.76528066	     50.54999808	     67.01835768	    799.61490654	    -41.95122380	     13.36589955	     36.04826856	     30.91852216	     45.00000000	    -45.00000000	    998.18060693	   2769.60618805	    157.38553989	      7.62918903	   1799.42485897	    537.16372723	     13.61581893	     14.29393811	    -13.37522022	    -45.00000000	    -34.69727686	     45.00000000	    -45.00000000	   5496.61186975	  -5686.25869032	     26.48973450	     36.99728426	   1069.77039518	     50.56676933	     11.97740759	    -15.60703475
      3.66000000	     24.80602530	     32.87053023	     50.54893752	     69.12632378	    798.09825636	    -41.83400989	     13.25407196	     36.17243500	     30.71617592	     45.00000000	    -45.00000000	    998.44768148	   2769.67655411	    157.51048066	      8.22647527	   1799.32516721	    537.21990649	     13.56414054	     14.31426893	    -13.49190399	    -45.00000000	    -34.57591168	     45.00000000	    -45.00000000	   5496.46485805	  -5686.45230148	     26.40037804	     36.30634542	   1069.83541655	     50.66756259	     11.95351279	    -15.59700798
      3.67000000	     24.52792804	     33.15623969	     50.85351965	     71.18122708	    796.55296657	    -41.72052186	     13.43076106	     35.99553113	     30.22973901	     45.00000000	    -45.00000000	    998.69936545	   2769.78818529	    157.51847836	      8.49936516	   1799.34885539	    537.12693124	     13.46014198	     14.17584635	    -13.62028597	    -45.00000000	    -34.38427749	     45.00000000	    -45.00000000	   5496.22621897	  -5686.55544173	     26.15457990	     35.45154198	   1069.87080288	     50.78013787	     11.71495252	    -15.33726808
      3.68000000	     24.47049258	     33.21806098	     51.10241574	     73.17591401	    794.98558825	    -41.61459967	     13.35072439	     36.05041666	     30.35237653	     45.00000000	    -45.00000000	    998.81051144	   2769.63675421	    157.62864046	      8.94518596	   1799.59470318	    536.95433305	     13.33743489	     14.01016648	    -13.78523014	    -45.00000000	    -34.22222927	     45.00000000	    -45.00000000	   5496.38287577	  -5686.72890349	     25.97934841	     34.84118442	   1069.89848910	     50.84464297	     11.68867027	    -15.29867565
      3.69000000	     24.41669297	     33.31619246	     51.25315542	     75.10712721	    793.40264851	    -41.52220028	     13.27763143	     36.15389911	     30.43078417	     45.00000000	    -45.00000000	    998.90672964	   2769.52279906	    157.80771955	      9.48726143	   1799.66821143	    536.66433895	     13.23556448	     13.95820102	    -13.98857158	    -45.00000000	    -34.02960433	     45.00000000	    -45.00000000	   5496.38213570	  -5686.89381240	     25.88556161	     34.34619390	   1069.91390170	     50.88663234	     11.68109121	    -15.29658162
      3.70000000	     24.35032466	     33.51584709	     51.23259878	     76.95506483	    791.82763897	    -41.44428835	     13.19894645	     36.23466074	     30.10293402	     45.00000000	    -45.00000000	    999.15634215	   2769.65429433	    157.97067629	     10.17970317	   1799.55259340	    536.33775555	     13.14934004	     13.90522072	    -14.11415849	    -45.00000000	    -33.90072282	     45.00000000	    -45.00000000	   5496.14971626	  -5687.06291425	     25.75081967	     33.55881877	   1069.95745976	     50.91851532	     11.59832025	    -15.24381689
      3.71000000	     24.34849071	     33.56707349	     51.35888776	     78.70644685	    790.28129132	    -41.38173234	     13.18044097	     36.29583122	     30.06951221	     45.00000000	    -45.00000000	    999.33472297	   2769.63300323	    157.95836467	     10.81108261	   1799.75688505	    535.89633553	     12.98237005	     13.77119830	    -14.26069367	    -45.00000000	    -33.80236972	     45.00000000	    -45.00000000	   5496.18752015	  -5687.20207856	     25.55750432	     33.04373970	   1069.96903098	     50.92496885	     11.50988155	    -15.16199670
      3.72000000	     24.22336806	     33.72505772	     51.62456926	     80.34101607	    788.79057102	    -41.33305947	     13.16548014	     36.27275985	     30.07800320	     45.00000000	    -45.00000000	    999.42694028	   2769.47302350	    158.17314009	     11.20796568	   1799.92408214	    535.35104442	     12.82759313	     13.64527858	    -14.41998787	    -45.00000000	    -33.54379463	     45.00000000	    -45.00000000	   5496.24495987	  -5687.30191639	     25.41161128	     32.46914894	   1069.94885160	     50.90131777	     11.46520275	    -15.12154970
      3.73000000	     24.17101789	     33.87413297	     51.74314416	     81.84436156	    787.37516251	    -41.29897986	     13.20987390	     36.26911011	     30.01704481	     45.00000000	    -45.00000000	    999.43770736	   2769.35063220	    158.24754080	     11.71209696	   1800.02453924	    534.74793211	     12.68697292	     13.54562383	    -14.56901884	    -45.00000000	    -33.36965341	     45.00000000	    -45.00000000	   5496.26734295	  -5687.39676783	     25.33959831	     32.00497537	   1069.85928557	     50.85522215	     11.43311052	    -15.05942985
      3.74000000	     24.13857712	     33.99923086	     51.81211067	     83.20907815	    786.04679212	    -41.27371360	     13.19808078	     36.28197933	     29.90894528	     45.00000000	    -45.00000000	    999.55376651	   2769.32558146	    158.33233279	     12.25786455	   1800.11102309	    534.19013508	     12.54524836	     13.46287464	    -14.68611244	    -45.00000000	    -33.24239758	     45.00000000	    -45.00000000	   5496.25110941	  -5687.49031066	     25.20114272	     31.48254195	   1069.83022758	     50.77095187	     11.37448580	    -15.01629050
      3.75000000	     24.15399820	     34.08536378	     51.82207004	     84.43798275	    784.80300858	    -41.25491744	     13.09128504	     36.36831048	     29.85403203	     45.00000000	    -45.00000000	    999.70214215	   2769.32414714	    158.46962099	     12.87326958	   1800.16644870	    533.74192857	     12.43615347	     13.39903653	    -14.77624912	    -45.00000000	    -33.11913047	     45.00000000	    -45.00000000	   5496.25553515	  -5687.59557273	     25.06831545	     30.95826936	   1069.82778848	     50.65410305	     11.36100076	    -15.03646279
      3.76000000	     24.12468242	     34.21511050	     51.85706374	     85.52760990	    783.65022276	    -41.23043678	     13.09178583	     36.37175255	     29.72535467	     45.00000000	    -45.00000000	    999.82109933	   2769.32324680	    158.57973052	     13.32005885	   1800.24259856	    533.33331867	     12.33903598	     13.33951969	    -14.85336314	    -45.00000000	    -33.00045202	     45.00000000	    -45.00000000	   5496.24815312	  -5687.67102112	     24.94975972	     30.42772759	   1069.79784624	     50.51027337	     11.32128816	    -15.02035421
      3.77000000	     24.16607251	     34.28933592	     51.76540702	     86.48531682	    782.57395433	    -41.20417799	     13.01828381	     36.45540683	     29.62474472	     45.00000000	    -45.00000000	    999.97736770	   2769.37547306	    158.67272166	     13.87755311	   1800.28332797	    533.01473653	     12.27756727	     13.30007128	    -14.92502803	    -45.00000000	    -32.94982337	     45.00000000	    -45.00000000	   5496.20175222	  -5687.75539779	     24.82956450	     29.93973380	   1069.77644220	     50.33055649	     11.30627715	    -15.02800407
      3.78000000	     24.10279983	     34.45250359	     51.81429896	     87.31083435	    781.56759460	    -41.17702468	     13.08394671	     36.38578765	     29.49727663	     45.00000000	    -45.00000000	   1000.00525186	   2769.33886226	    158.74627000	     14.16669125	   1800.40327951	    532.68558690	     12.21745086	     13.24669082	    -14.98543277	    -45.00000000	    -32.83672394	     45.00000000	    -45.00000000	   5496.23578539	  -5687.78162741	     24.75739431	     29.49076720	   1069.75098287	     50.10670337	     11.28228667	    -15.00114459
      3.79000000	     24.15880923	     34.50786439	     51.72717452	     88.01266938	    780.61054661	    -41.16423869	     13.02189633	     36.44109001	     29.43461034	     45.00000000	    -45.00000000	   1000.08713537	   2769.37189421	    158.80630580	     14.65369437	   1800.44511145	    532.42163500	     12.20468879	     13.19269325	    -15.04462524	    -45.00000000	    -32.78546303	     45.00000000	    -45.00000000	   5496.24118470	  -5687.82905691	     24.64756950	     29.09902929	   1069.71859583	     49.84811054	     11.30583925	    -15.00681521
      3.80000000	     24.26135330	     34.63167857	     51.45811561	     88.58852725	    779.70200975	    -41.16913714	     12.98068548	     36.51796142	     29.18069054	     45.00000000	    -45.00000000	   1000.16494363	   2769.51761350	    158.87847920	     15.12261298	   1800.29308488	    532.18840027	     12.27548112	     13.16836043	    -15.10432266	    -45.00000000	    -32.79272515	     45.00000000	    -45.00000000	   5496.09531638	  -5687.94656550	     24.57227462	     28.68223606	   1069.75881771	     49.57342418	     11.30223079	    -15.02649736
      3.81000000	     24.16596253	     34.74813191	     51.62820934	     89.04263924	    778.82953568	    -41.20445563	     13.09510971	     36.33129803	     29.13018358	     45.00000000	    -45.00000000	   1000.13304572	   2769.44217264	    158.82891106	     15.36854357	   1800.61120888	    531.88883141	     12.21626009	     13.02163459	    -15.14778055	    -45.00000000	    -32.64783047	     45.00000000	    -45.00000000	   5496.25598052	  -5687.84161916	     24.50590944	     28.33094000	   1069.63288824	     49.29853215	     11.33546128	    -14.96066047
      3.82000000	     24.36511072	     34.79802784	     51.26641895	     89.36927682	    778.00019472	    -41.26057113	     12.94974391	     36.53590951	     29.08737033	     45.00000000	    -45.00000000	   1000.22008001	   2769.55525754	    158.98923415	     15.83756854	   1800.52056121	    531.62984310	     12.26939428	     12.99526279	    -15.16418659	    -45.00000000	    -32.67248559	     45.00000000	    -45.00000000	   5496.20344144	  -5687.91569719	     24.50217365	     28.01909216	   1069.67996052	     48.97901668	     11.42546338	    -15.04539251
